<svg width="44" height="44" viewBox="0 0 44 44" xmlns="http://www.w3.org/2000/svg" xmlns:xlink="http://www.w3.org/1999/xlink"><defs><path id="a" d="M0 .08h15v14H0z"/><path id="c" d="M0 .4h8v4H0z"/></defs><g fill="none" fill-rule="evenodd"><g transform="translate(15 18.92)"><mask id="b" fill="#fff"><use xlink:href="#a"/></mask><path d="M2 11.087c0 .54.453.993 1.003.993h7.994A.997.997 0 0012 11.087V-.927c0-.54-.453-.993-1.003-.993H3.003A.997.997 0 002-.927v12.014zM3.003-3.92h7.994A3.006 3.006 0 0114-.927v12.014a2.997 2.997 0 01-3.003 2.993H3.003A3.006 3.006 0 010 11.087V-.927A2.997 2.997 0 013.003-3.92z" fill="#2D2D2D" fill-rule="nonzero" mask="url(#b)"/></g><g transform="rotate(-180 13 7.7)"><mask id="d" fill="#fff"><use xlink:href="#c"/></mask><path d="M2 1.398A.999.999 0 003.002 2.4h1.996A.999.999 0 006 1.398V-.598A.999.999 0 004.998-1.6H3.002A.999.999 0 002-.598v1.996zM3.002-3.6h1.996A2.999 2.999 0 018-.598v1.996A2.999 2.999 0 014.998 4.4H3.002A2.999 2.999 0 010 1.398V-.598A2.999 2.999 0 013.002-3.6z" fill="#2D2D2D" fill-rule="nonzero" mask="url(#d)"/></g><path fill="#2D2D2D" d="M13 16h18v2H13zm7 4h1v9h-1zm3 0h1v9h-1z"/></g></svg>