<svg xmlns="http://www.w3.org/2000/svg" width="32" height="32" viewBox="0 0 32 32"><g fill="#777" fill-rule="evenodd"><path d="M2.092 14.572l.86-1.563 1.728 2.702.326 1.258 1.762 3.145-.382 2.829-.937.486-.122 2.622L1.6 21.878v-4.444l.492-2.862zm20.802-6.566l1.381 2.23 2.076 3.352.683.25.711-.336-.38 2.146-1.832 2.7.235 1.487-.146 1.51-1.657 1.472-.082.81-1.217 1.511-2.444 1.155-.507-.319-.383-3.599.165-1.755-.26-3.364-.711-.92.808-1.053-4.14-1.574-1.9.747-2.077-2.303-.017-2.472 2.074-1.45.797-1.128 3.006-.494 5.817 1.397zm-4.538-6.402c.52.083 6.273 2.245 6.273 2.245l4.005 4.692-1.487-.143 1.12 2.041s.868 1.408.825 1.485c-.043.077-1.494 1.06-1.494 1.06L24.192 8.05l.46-.79s-2.698-1.507-2.776-1.536c-.078-.028-.348.495-.348.495s-1.988-1.895-2.092-1.895c-.105 0-.225.346-.225.346l-1.63.215-.985.947-2.196-.157 1.493-1.144.53-1.017h1.83l1.686-.286-.575-.789-.521.66-1.61-.433s.603-1.146 1.123-1.063z"/><path fill-rule="nonzero" d="M16 30.4c7.953 0 14.4-6.447 14.4-14.4S23.953 1.6 16 1.6 1.6 8.047 1.6 16 8.047 30.4 16 30.4zm0 1.6C7.163 32 0 24.837 0 16S7.163 0 16 0s16 7.163 16 16-7.163 16-16 16z"/></g></svg>